<svg width="730" height="727" viewBox="0 0 730 727" fill="none" xmlns="http://www.w3.org/2000/svg">
<line x1="126.008" x2="126.008" y2="727.006" stroke="#E1E1E1" stroke-opacity="0.26"/>
<line x1="245.992" x2="245.992" y2="727.006" stroke="#E1E1E1" stroke-opacity="0.26"/>
<line x1="365.975" x2="365.975" y2="727.006" stroke="#E1E1E1" stroke-opacity="0.26"/>
<line x1="485.959" x2="485.959" y2="727.006" stroke="#E1E1E1" stroke-opacity="0.26"/>
<line x1="607.435" y1="0.00205197" x2="604.451" y2="727.002" stroke="#E1E1E1" stroke-opacity="0.26"/>
<line x1="3" y1="98.5" x2="730.006" y2="98.5" stroke="#E1E1E1" stroke-opacity="0.26"/>
<line y1="201.5" x2="727.006" y2="201.5" stroke="#E1E1E1" stroke-opacity="0.26"/>
<line x1="3" y1="314.5" x2="730.006" y2="314.5" stroke="#E1E1E1" stroke-opacity="0.26"/>
<line x1="3" y1="434.5" x2="730.006" y2="434.5" stroke="#E1E1E1" stroke-opacity="0.26"/>
<line x1="3" y1="554.5" x2="730.006" y2="554.5" stroke="#E1E1E1" stroke-opacity="0.26"/>
<line x1="3" y1="674.5" x2="730.006" y2="674.5" stroke="#E1E1E1" stroke-opacity="0.26"/>
<circle cx="126.5" cy="201.5" r="12.5" fill="url(#paint0_linear_59_28)" fill-opacity="0.6"/>
<circle cx="126.5" cy="201.5" r="12" stroke="#E1E1E1" stroke-opacity="0.26"/>
<circle cx="562.5" cy="314.5" r="7.5" fill="url(#paint1_linear_59_28)" fill-opacity="0.6"/>
<circle cx="562.5" cy="314.5" r="7" stroke="#E1E1E1" stroke-opacity="0.26"/>
<circle cx="398" cy="435" r="16" fill="url(#paint2_linear_59_28)" fill-opacity="0.6"/>
<circle cx="398" cy="435" r="15.5" stroke="#E1E1E1" stroke-opacity="0.26"/>
<circle cx="126" cy="555" r="22" fill="url(#paint3_linear_59_28)" fill-opacity="0.6"/>
<circle cx="126" cy="555" r="21.5" stroke="#E1E1E1" stroke-opacity="0.26"/>
<defs>
<linearGradient id="paint0_linear_59_28" x1="120.032" y1="192.835" x2="134.577" y2="210.165" gradientUnits="userSpaceOnUse">
<stop offset="0.0876117" stop-color="#534A1B"/>
<stop offset="0.889039" stop-color="#1E1A2A"/>
</linearGradient>
<linearGradient id="paint1_linear_59_28" x1="566.08" y1="310.92" x2="556.534" y2="318.932" gradientUnits="userSpaceOnUse">
<stop offset="0.073712" stop-color="#B1420E"/>
<stop offset="0.889039" stop-color="#1E1A2A"/>
</linearGradient>
<linearGradient id="paint2_linear_59_28" x1="389.722" y1="423.909" x2="408.338" y2="446.091" gradientUnits="userSpaceOnUse">
<stop offset="0.0876117" stop-color="#722095"/>
<stop offset="0.889039" stop-color="#1E1A2A"/>
</linearGradient>
<linearGradient id="paint3_linear_59_28" x1="136.5" y1="544.5" x2="108.5" y2="568" gradientUnits="userSpaceOnUse">
<stop offset="0.073712" stop-color="#6DB29B"/>
<stop offset="0.889039" stop-color="#1E1A2A"/>
</linearGradient>
</defs>
</svg>
